HIERARCHY
ROOT Hips
{
	OFFSET 62.890800 8.863803 43.568401
	CHANNELS 6 Xposition Yposition Zposition Zrotation Xrotation Yrotation
	JOINT Chest
	{
		OFFSET -0.160400 1.630001 7.806301
		CHANNELS 6 Xposition Yposition Zposition Zrotation Xrotation Yrotation
		JOINT Chest2
		{
			OFFSET 0.000000 0.000000 3.197998
			CHANNELS 6 Xposition Yposition Zposition Zrotation Xrotation Yrotation
			JOINT Neck
			{
				OFFSET 0.000000 0.000001 7.440701
				CHANNELS 6 Xposition Yposition Zposition Zrotation Xrotation Yrotation
				JOINT Head
				{
					OFFSET 0.000000 0.000000 2.173901
					CHANNELS 6 Xposition Yposition Zposition Zrotation Xrotation Yrotation
					End Site
					{
						OFFSET 0.000000 0.000001 10.420303
					}
				}
			}
			JOINT LeftCollar
			{
				OFFSET 2.426399 -1.880099 4.759399
				CHANNELS 6 Xposition Yposition Zposition Zrotation Xrotation Yrotation
				JOINT LeftShoulder
				{
					OFFSET 4.420197 0.000000 0.000000
					CHANNELS 6 Xposition Yposition Zposition Zrotation Xrotation Yrotation
					JOINT LeftElbow
					{
						OFFSET 0.000000 -0.000001 -10.347099
						CHANNELS 6 Xposition Yposition Zposition Zrotation Xrotation Yrotation
						JOINT LeftWrist
						{
							OFFSET 0.000000 -0.000001 -12.496300
							CHANNELS 6 Xposition Yposition Zposition Zrotation Xrotation Yrotation
							End Site
							{
								OFFSET 0.000000 0.000000 -2.173901
							}
						}
					}
				}
			}
			JOINT RightCollar
			{
				OFFSET -2.781502 -1.903799 5.072601
				CHANNELS 6 Xposition Yposition Zposition Zrotation Xrotation Yrotation
				JOINT RightShoulder
				{
					OFFSET -4.012100 0.000000 0.000000
					CHANNELS 6 Xposition Yposition Zposition Zrotation Xrotation Yrotation
					JOINT RightElbow
					{
						OFFSET 0.000000 -0.000001 -10.346600
						CHANNELS 6 Xposition Yposition Zposition Zrotation Xrotation Yrotation
						JOINT RightWrist
						{
							OFFSET 0.000000 -0.000001 -12.562599
							CHANNELS 6 Xposition Yposition Zposition Zrotation Xrotation Yrotation
							End Site
							{
								OFFSET 0.000000 0.000000 -2.173901
							}
						}
					}
				}
			}
		}
	}
	JOINT LeftHip
	{
		OFFSET 2.047997 -0.047200 -2.693199
		CHANNELS 6 Xposition Yposition Zposition Zrotation Xrotation Yrotation
		JOINT LeftKnee
		{
			OFFSET 0.000000 -0.000001 -18.824400
			CHANNELS 6 Xposition Yposition Zposition Zrotation Xrotation Yrotation
			JOINT LeftAnkle
			{
				OFFSET 0.000000 -0.000002 -19.078199
				CHANNELS 6 Xposition Yposition Zposition Zrotation Xrotation Yrotation
				End Site
				{
					OFFSET 0.000000 -9.342100 0.000001
				}
			}
		}
	}
	JOINT RightHip
	{
		OFFSET -2.129898 -0.022300 -2.538300
		CHANNELS 6 Xposition Yposition Zposition Zrotation Xrotation Yrotation
		JOINT RightKnee
		{
			OFFSET 0.000000 -0.000001 -18.644600
			CHANNELS 6 Xposition Yposition Zposition Zrotation Xrotation Yrotation
			JOINT RightAnkle
			{
				OFFSET 0.000000 -0.000002 -18.801399
				CHANNELS 6 Xposition Yposition Zposition Zrotation Xrotation Yrotation
				End Site
				{
					OFFSET 0.000000 -8.914600 0.000001
				}
			}
		}
	}
}
MOTION
Frames: 8
Frame Time: 0.041667
44.059303 31.507191 18.967474 -67.054289 18.892247 -2.968300 -0.160407 1.630005 7.806305 -18.097527 28.021278 2.262445 -0.000006 0.000008 3.198001 3.395108 -9.708205 0.332356 -0.000001 0.000003 7.440702 2.335596 -0.075741 -8.594307 -0.000004 0.000005 2.173905 2.075286 -6.407355 0.499677 2.426403 -1.880101 4.759397 -182.266508 172.027248 -184.258123 4.420189 0.000001 -0.000000 -34.108435 31.639192 -35.230454 0.000004 0.000002 -10.347095 536.427266 -185.147413 -179.957863 0.000003 0.000002 -12.496300 89.888452 14.494583 351.181635 -2.781501 -1.903797 5.072604 -180.315655 -188.116373 169.591138 -4.012094 -0.000002 0.000003 24.710096 39.134484 393.811277 0.000002 0.000001 -10.346593 -355.667949 6.651861 5.187618 0.000009 -0.000004 -12.562597 1444.247543 -188.184593 131.851625 2.047987 -0.047194 -2.693202 491.867822 -18.167132 125.146565 0.000002 0.000004 -18.824402 8.986774 180.730507 -51.429897 0.000001 0.000001 -19.078197 -322.869435 -10.565288 48.051207 -2.129905 -0.022293 -2.538294 -504.475259 -14.496173 -77.105855 0.000001 0.000005 -18.644596 388.129926 180.417179 29.956926 -0.000004 0.000000 -18.801395 -23.987203 0.445904 -59.514737
44.097801 31.120987 18.849874 -67.176065 19.475859 -2.650373 -0.160402 1.630002 7.806302 -17.586591 28.251539 2.106833 0.000004 0.000006 3.198002 3.351324 -9.764602 0.335954 -0.000004 0.000005 7.440688 1.944220 0.227032 -8.474575 -0.000005 0.000002 2.173904 2.083506 -6.330340 0.263146 2.426402 -1.880096 4.759393 -182.042792 172.473861 -184.335386 4.420195 -0.000005 0.000002 -35.521796 31.864871 -34.342287 -0.000008 -0.000002 -10.347089 536.580208 -185.250071 -179.979501 -0.000001 -0.000006 -12.496298 92.249211 14.837141 351.190213 -2.781500 -1.903799 5.072595 -180.163889 -187.759865 169.450204 -4.012095 -0.000002 0.000003 25.492018 37.174578 392.714458 0.000003 0.000001 -10.346598 -357.163323 6.448184 5.166341 0.000008 0.000001 -12.562595 1446.698652 -188.411451 132.160103 2.047994 -0.047199 -2.693203 492.035790 -18.143248 126.215803 0.000001 -0.000004 -18.824404 9.514631 180.662137 -50.595839 0.000002 -0.000002 -19.078201 -322.715319 -10.607735 47.921014 -2.129903 -0.022303 -2.538296 -504.820702 -13.642269 -77.841528 0.000000 0.000004 -18.644598 388.624732 181.074503 30.335595 0.000008 -0.000004 -18.801395 -24.639259 0.290836 -59.876013
44.162498 30.767597 18.762280 -67.278825 20.128581 -2.457691 -0.160400 1.630001 7.806309 -17.101578 28.444709 1.996238 0.000000 -0.000000 3.198005 3.305595 -9.795697 0.340735 -0.000001 -0.000003 7.440701 1.564171 0.344601 -8.321319 -0.000001 0.000006 2.173905 2.049047 -6.318446 0.080994 2.426403 -1.880105 4.759393 -181.829826 172.957247 -184.409985 4.420186 -0.000002 0.000000 -36.924723 31.989283 -33.585789 -0.000003 0.000002 -10.347094 536.854399 -185.334738 -180.004718 -0.000001 -0.000007 -12.496299 94.610981 15.157161 351.242287 -2.781502 -1.903802 5.072599 -180.162044 -187.453586 170.078459 -4.012086 -0.000006 0.000005 26.999470 34.934362 390.858122 -0.000006 -0.000000 -10.346598 -358.874368 6.172166 5.124558 -0.000004 0.000002 -12.562597 1448.801039 -188.775760 132.518948 2.047996 -0.047194 -2.693192 492.352820 -18.515268 127.168096 0.000002 0.000003 -18.824400 10.366765 180.203067 -49.953336 0.000000 -0.000002 -19.078201 -322.912902 -10.617720 47.438143 -2.129893 -0.022303 -2.538294 -504.782562 -13.419847 -78.580705 -0.000004 0.000006 -18.644592 388.703334 181.397325 30.671770 0.000003 -0.000008 -18.801394 -24.884604 0.185922 -59.762154
44.237099 30.537888 18.732880 -67.353827 20.691003 -2.399814 -0.160401 1.630003 7.806300 -16.656472 28.551094 1.861960 0.000005 -0.000003 3.198005 3.214564 -9.801517 0.343306 -0.000001 0.000000 7.440697 1.316144 0.279229 -8.163113 -0.000001 0.000004 2.173907 2.003680 -6.383464 -0.032501 2.426409 -1.880099 4.759396 -181.749708 173.201016 -184.375807 4.420193 -0.000004 -0.000001 -37.978601 31.969800 -33.238982 -0.000000 -0.000003 -10.347093 537.269128 -185.381402 -180.026083 0.000003 -0.000002 -12.496296 96.667565 15.441779 351.245811 -2.781497 -1.903802 5.072611 -179.914669 -187.243516 170.029459 -4.012091 -0.000001 0.000002 27.706073 33.593503 390.186250 -0.000002 0.000002 -10.346588 -360.132079 5.848563 4.967081 0.000006 -0.000000 -12.562607 1450.016157 -188.999776 132.855690 2.047995 -0.047194 -2.693211 492.394239 -18.395960 127.812060 0.000000 0.000001 -18.824402 10.767643 180.021438 -49.639431 0.000001 -0.000004 -19.078197 -322.902603 -10.640266 47.060365 -2.129897 -0.022292 -2.538307 -505.015445 -12.340168 -79.315852 -0.000000 0.000004 -18.644602 389.295757 181.876108 31.028228 0.000007 -0.000005 -18.801399 -25.357374 0.002239 -59.837334
44.329102 30.285091 18.712181 -67.447237 21.351282 -2.347997 -0.160401 1.630003 7.806303 -16.115587 28.661980 1.677061 -0.000002 -0.000003 3.198003 3.089138 -9.810464 0.345883 -0.000000 0.000007 7.440701 1.056930 0.166443 -7.962015 -0.000001 0.000006 2.173907 1.943859 -6.472984 -0.147241 2.426401 -1.880095 4.759398 -181.687116 173.425852 -184.300770 4.420194 -0.000004 0.000003 -39.118621 31.882230 -32.954184 -0.000002 0.000002 -10.347091 537.810953 -185.412807 -180.044893 -0.000002 -0.000010 -12.496296 99.091292 15.765284 351.251385 -2.781498 -1.903794 5.072606 -179.635205 -187.020552 169.991906 -4.012098 -0.000002 0.000003 28.532115 32.128667 389.539130 0.000003 -0.000003 -10.346593 -361.512651 5.454781 4.738461 -0.000004 -0.000005 -12.562595 1451.047789 -188.896135 132.443105 2.047995 -0.047195 -2.693210 492.437569 -18.386325 128.557233 0.000002 -0.000001 -18.824396 11.281311 179.700488 -49.266465 0.000007 0.000001 -19.078203 -322.922765 -10.680019 46.499897 -2.129897 -0.022295 -2.538301 -505.181664 -11.176162 -80.160330 -0.000001 0.000003 -18.644598 389.903043 182.384260 31.437219 0.000004 -0.000003 -18.801395 -25.857836 -0.206682 -59.887379
44.438499 30.019192 18.704382 -67.563104 22.103532 -2.308361 -0.160404 1.629997 7.806298 -15.486711 28.774863 1.440822 0.000007 0.000004 3.198000 2.931324 -9.821465 0.348612 -0.000001 0.000001 7.440701 0.800761 0.063296 -7.721210 -0.000007 -0.000000 2.173913 1.870619 -6.657824 -0.249635 2.426410 -1.880097 4.759397 -181.639674 173.634323 -184.195135 4.420190 0.000003 0.000002 -40.243352 31.684080 -32.802595 0.000005 -0.000002 -10.347096 538.414359 -185.407493 -180.050344 0.000003 0.000000 -12.496292 101.844609 16.120271 351.262586 -2.781497 -1.903798 5.072601 -179.330619 -186.789445 169.989215 -4.012094 -0.000009 0.000000 29.520378 30.550436 388.915233 0.000000 -0.000003 -10.346594 -363.012397 5.034534 4.460397 0.000000 -0.000007 -12.562600 1452.212200 -189.087135 132.784383 2.048000 -0.047202 -2.693210 492.795417 -19.120700 129.369548 0.000003 -0.000004 -18.824398 12.339939 178.897052 -48.977688 -0.000001 -0.000001 -19.078197 -323.255751 -10.717589 45.567498 -2.129899 -0.022298 -2.538302 -504.724315 -11.289702 -80.969844 -0.000000 0.000001 -18.644602 389.656282 182.415160 31.795685 0.000001 0.000002 -18.801399 -25.785641 -0.323788 -59.441128
44.564697 29.749786 18.713280 -67.702310 22.931723 -2.289367 -0.160399 1.630004 7.806306 -14.779744 28.888517 1.161662 0.000002 0.000005 3.197995 2.741145 -9.833080 0.351590 0.000003 0.000005 7.440705 0.535429 -0.169132 -7.426635 -0.000008 0.000007 2.173904 1.777176 -6.798839 -0.359199 2.426403 -1.880095 4.759401 -181.615905 173.806212 -184.067724 4.420192 -0.000003 -0.000002 -41.460191 31.394544 -32.727111 0.000001 -0.000001 -10.347097 539.202181 -185.395335 -180.056327 0.000003 -0.000005 -12.496291 104.892711 16.496107 351.269007 -2.781502 -1.903793 5.072613 -178.999574 -186.566180 170.022150 -4.012094 0.000000 0.000008 30.621948 28.989918 388.441082 -0.000001 -0.000002 -10.346594 -364.577084 4.511034 4.070834 -0.000004 0.000000 -12.562598 1453.247219 -189.290346 133.181517 2.047996 -0.047196 -2.693200 492.996006 -19.552417 130.221627 0.000003 0.000002 -18.824398 13.228494 178.194089 -48.640735 0.000001 0.000000 -19.078199 -323.421150 -10.774273 44.590193 -2.129890 -0.022301 -2.538294 -504.407776 -10.924632 -81.946929 0.000002 0.000003 -18.644598 389.695186 182.646102 32.248810 0.000002 0.000002 -18.801395 -25.958399 -0.534655 -59.160701
44.706295 29.485085 18.741674 -67.874055 23.838526 -2.176173 -0.160398 1.630000 7.806303 -13.933710 29.009374 0.713636 0.000004 -0.000001 3.197994 2.546486 -9.869419 0.282525 -0.000002 -0.000006 7.440694 0.244506 -0.440754 -7.013305 -0.000005 0.000006 2.173907 1.668017 -6.957147 -0.462375 2.426409 -1.880103 4.759386 -181.657883 173.895045 -183.843311 4.420197 -0.000004 0.000008 -42.648883 30.976885 -32.818694 0.000002 -0.000000 -10.347094 540.087646 -185.358247 -180.052611 -0.000013 -0.000001 -12.496292 108.198017 16.889449 351.273077 -2.781497 -1.903805 5.072595 -178.671793 -186.397420 170.159670 -4.012102 -0.000004 -0.000007 31.816408 27.448155 388.164186 -0.000001 -0.000005 -10.346600 -366.210319 3.938419 3.594950 0.000002 0.000004 -12.562597 1454.146946 -189.459025 133.652896 2.047997 -0.047193 -2.693205 493.217577 -20.045328 131.178769 0.000002 0.000000 -18.824406 14.103601 177.466073 -48.438486 0.000004 -0.000003 -19.078201 -323.525762 -10.832467 43.670877 -2.129893 -0.022299 -2.538298 -503.918516 -10.610153 -82.927840 -0.000001 0.000005 -18.644598 389.572134 182.739908 32.684019 0.000008 -0.000002 -18.801407 -26.122386 -0.725471 -58.765937
